@startuml



state Pilot_1 {

    state Flugleiter_und_darf_fliegen
    state Flugleiter_und_darf_nicht_fliegen
    state Flugleiterrolle_wird_angeboten
    state Kein_Flugleiter_und_darf_fliegen
    
    [*] --> Flugleiter_und_darf_fliegen: erster Pilot meldet sich an
    Flugleiter_und_darf_fliegen --> Flugleiter_und_darf_fliegen: zweiter Pilot meldet sich an
    Flugleiter_und_darf_fliegen --> Flugleiter_und_darf_nicht_fliegen: dritter Pilot meldet sich an
    Flugleiter_und_darf_nicht_fliegen --> Flugleiter_und_darf_nicht_fliegen: vierter Pilot meldet sich an
    Flugleiter_und_darf_nicht_fliegen --> Flugleiterrolle_wird_angeboten: Pilot1 fragt Abgabe seiner Rolle an
    Flugleiterrolle_wird_angeboten --> Kein_Flugleiter_und_darf_fliegen: Pilot2 nimmt Flugleiterrolle an
}

state Pilot_2 {
    [*] --> Kein_Flugleiter_und_darf_fliegen2: zweiter Pilot meldet sich an
    Kein_Flugleiter_und_darf_fliegen2 --> Kein_Flugleiter_und_darf_fliegen2: weitere Piloten melden sich an
    Kein_Flugleiter_und_darf_fliegen2 --> Flugleiter_und_darf_nicht_fliegen2: nimmt Flugleiterrolle von Pilot1 an
    Flugleiterrolle_wird_angeboten -r-> Flugleiter_und_darf_nicht_fliegen2
}

@enduml